<svg width="60" height="60" viewBox="0 0 60 60" fill="none" xmlns="http://www.w3.org/2000/svg">
<path fill-rule="evenodd" clip-rule="evenodd" d="M10.0855 20H10.7435L10.7617 20.0006C13.0284 20.0762 15.1951 20.8887 16.943 22.295C18.6909 20.8887 20.8576 20.0762 23.1244 20.0006L23.1425 20H23.8005L23.8187 20.0006C26.0854 20.0762 28.2521 20.8887 30 22.295C31.7479 20.8887 33.9146 20.0762 36.1814 20.0006L36.1995 20H36.8575L36.8757 20.0006C39.1424 20.0762 41.3091 20.8887 43.057 22.295C44.8049 20.8887 46.9716 20.0762 49.2383 20.0006L49.2565 20H49.9145L49.9326 20.0006C52.6632 20.0917 55.2485 21.252 57.1315 23.2316C59.0144 25.2111 60.0441 27.8513 59.9986 30.5829C59.953 33.3146 58.8359 35.9189 56.888 37.8346C54.9402 39.7503 52.3175 40.8238 49.5855 40.8238C47.2006 40.8238 44.8991 40.0058 43.057 38.5236C41.2149 40.0058 38.9134 40.8238 36.5285 40.8238C34.1436 40.8238 31.8421 40.0058 30 38.5236C28.1579 40.0058 25.8564 40.8238 23.4715 40.8238C21.0866 40.8238 18.7851 40.0058 16.943 38.5236C15.1009 40.0058 12.7994 40.8238 10.4145 40.8238C7.68248 40.8238 5.05985 39.7503 3.11198 37.8346C1.1641 35.9189 0.046989 33.3146 0.00144873 30.5829C-0.0440914 27.8513 0.985588 25.2111 2.86852 23.2316C4.75146 21.252 7.33685 20.0917 10.0674 20.0006L10.0855 20ZM18.4974 36.9766C19.9213 38.0551 21.6662 38.6477 23.4715 38.6477C25.2768 38.6477 27.0217 38.0551 28.4456 36.9766C26.9819 35.1752 26.1545 32.9259 26.1154 30.5829C26.0744 28.1233 26.9052 25.7378 28.4456 23.842C27.1021 22.8245 25.4691 22.2367 23.7637 22.1762H23.1793C21.4739 22.2367 19.8409 22.8245 18.4974 23.842C20.0378 25.7378 20.8686 28.1233 20.8276 30.5829C20.7885 32.9259 19.9611 35.1752 18.4974 36.9766ZM16.943 25.3844C18.0753 26.8554 18.6829 28.6739 18.6517 30.5466C18.622 32.327 18.0169 34.039 16.943 35.4342C15.8691 34.039 15.264 32.327 15.2343 30.5466C15.2031 28.6739 15.8108 26.8554 16.943 25.3844ZM15.3886 23.842C13.8482 25.7378 13.0174 28.1233 13.0584 30.5829C13.0975 32.9259 13.9249 35.1752 15.3886 36.9766C13.9647 38.0551 12.2198 38.6477 10.4145 38.6477C8.25335 38.6477 6.17873 37.7984 4.63788 36.2831C3.09702 34.7677 2.21334 32.7075 2.17731 30.5466C2.14129 28.3858 2.95581 26.2973 4.4453 24.7314C5.93074 23.1698 7.96885 22.2526 10.1223 22.1762H10.7067C12.4121 22.2367 14.0451 22.8245 15.3886 23.842ZM30 25.3844C28.8678 26.8554 28.2601 28.6739 28.2913 30.5466C28.321 32.327 28.9261 34.039 30 35.4342C31.0739 34.039 31.679 32.327 31.7087 30.5466C31.7399 28.6739 31.1323 26.8554 30 25.3844ZM31.5544 36.9766C32.9783 38.0551 34.7232 38.6477 36.5285 38.6477C38.3338 38.6477 40.0787 38.0551 41.5026 36.9766C40.0389 35.1752 39.2115 32.9259 39.1724 30.5829C39.1314 28.1233 39.9622 25.7378 41.5026 23.842C40.1591 22.8245 38.5261 22.2367 36.8207 22.1762H36.2363C34.5309 22.2367 32.8979 22.8245 31.5544 23.842C33.0948 25.7378 33.9256 28.1233 33.8846 30.5829C33.8455 32.9259 33.0181 35.1752 31.5544 36.9766ZM43.057 25.3844C41.9247 26.8554 41.3171 28.6739 41.3483 30.5466C41.378 32.327 41.9831 34.039 43.057 35.4342C44.1309 34.039 44.736 32.327 44.7657 30.5466C44.7969 28.6739 44.1892 26.8554 43.057 25.3844ZM44.6114 36.9766C46.0353 38.0551 47.7802 38.6477 49.5855 38.6477C51.7467 38.6477 53.8213 37.7984 55.3621 36.2831C56.903 34.7677 57.7867 32.7075 57.8227 30.5466C57.8587 28.3858 57.0442 26.2973 55.5547 24.7314C54.0693 23.1698 52.0312 22.2526 49.8777 22.1762H49.2933C47.5879 22.2367 45.9549 22.8245 44.6114 23.842C46.1518 25.7378 46.9826 28.1233 46.9416 30.5829C46.9025 32.9259 46.0751 35.1752 44.6114 36.9766Z" fill="#222222"/>
</svg>
