<svg width="60" height="60" viewBox="0 0 60 60" fill="none" xmlns="http://www.w3.org/2000/svg">
<path d="M29.9943 12.2266V13.2454C39.2773 13.2454 46.749 20.8303 46.749 30.0001H47.7679C47.7679 20.1511 39.8433 12.2266 29.9943 12.2266ZM29.9943 46.7549C20.7113 46.7549 13.2396 39.17 13.2396 30.0001H12.2207C12.2207 39.8492 20.1452 47.7737 29.9943 47.7737" fill="white"/>
<path d="M29.9943 12.2266V30.0001H12.2207C12.2207 20.1511 20.1452 12.2266 29.9943 12.2266Z" fill="#0066B1"/>
<path d="M47.7736 30C47.7736 39.8491 39.8491 47.7736 30 47.7736V30H47.7736Z" fill="#0066B1"/>
<path d="M30 0C13.4717 0 0 13.4717 0 30C0 46.5283 13.4717 60 30 60C46.5283 60 60 46.5283 60 30C60 13.4717 46.5283 0 30 0ZM58.0755 30C58.0755 45.5094 45.5094 58.0755 30 58.0755C14.4906 58.0755 1.92453 45.5094 1.92453 30C1.92453 14.4906 14.4906 1.92453 30 1.92453C45.5094 1.92453 58.0755 14.4906 58.0755 30Z" fill="#DBDBDB"/>
<path d="M44.3396 17.2884C44.7924 17.7412 45.3585 18.4205 45.6981 18.8733L51.8113 15.0243C51.4717 14.6846 51.0188 14.0054 50.6792 13.6658L46.7169 16.1563L46.4905 16.3828L46.7169 16.0431L48.4151 12.6469L47.1698 11.4016L43.7735 13.0997L43.4339 13.3262L43.6603 13.0997L46.2641 9.36389C45.8113 9.02426 45.3585 8.68464 44.7924 8.23181L40.9434 14.2318C41.3962 14.5714 42.0754 15.1375 42.5283 15.4771L46.1509 13.5526L46.3773 13.4394L46.1509 13.6658L44.3396 17.2884Z" fill="#DBDBDB"/>
<path d="M30.5397 9.70313L32.2378 5.96728L32.351 5.62765V5.96728L32.5774 10.9484C33.1434 10.9484 33.7095 11.0616 34.3887 11.1748L34.1623 3.92954C33.1434 3.81633 32.351 3.70312 31.5585 3.70312L29.9736 7.7786L29.8604 8.11822L29.7472 7.7786L28.1623 3.70312C27.3698 3.70312 26.4642 3.81633 25.6717 3.92954L25.4453 11.1748C26.0114 11.0616 26.6906 10.9484 27.2566 10.9484L27.3698 6.08048V5.74086V5.96728L29.068 9.70313H30.5397Z" fill="#DBDBDB"/>
<path d="M17.1777 15.4772C18.0834 14.4584 18.6494 13.3263 17.7437 12.1942C17.1777 11.6282 16.272 11.515 15.5928 11.8546H15.4796V11.7414C15.5928 11.515 15.706 10.6093 14.9135 9.93008C14.5739 9.70366 14.0079 9.59045 13.5551 9.59045C12.6494 9.70366 11.9702 10.2697 10.0456 12.4206C9.47958 13.0999 8.68713 14.0055 8.12109 14.6848L13.3286 19.5527C15.14 17.6282 15.8192 16.9489 17.1777 15.4772ZM10.3852 14.3452C11.4041 13.0999 12.5362 11.9678 12.989 11.515C13.1022 11.4018 13.3286 11.1754 13.5551 11.1754C13.8947 11.0622 14.2343 11.2886 14.3475 11.6282C14.4607 11.9678 14.2343 12.3074 14.0079 12.5339C13.4418 13.0999 11.4041 15.2508 11.4041 15.2508L10.3852 14.3452ZM12.423 16.2697C12.423 16.2697 14.3475 14.232 15.0268 13.5527C15.2532 13.3263 15.4796 13.0999 15.5928 13.0999C15.8192 12.9867 16.0456 12.9867 16.272 13.0999C16.4985 13.2131 16.6117 13.4395 16.4985 13.7791C16.4985 14.0055 16.272 14.232 16.0456 14.4584C15.8192 14.798 13.4418 17.1754 13.4418 17.2886L12.423 16.2697Z" fill="#DBDBDB"/>
<path d="M47.7736 30.0001H30V12.2266C39.8491 12.2266 47.7736 20.1511 47.7736 30.0001Z" fill="#DBDBDB"/>
<path d="M29.9943 47.7736C20.1452 47.7736 12.2207 39.8491 12.2207 30H29.9943V47.7736Z" fill="#DBDBDB"/>
</svg>
