<svg width="60" height="60" viewBox="0 0 60 60" fill="none" xmlns="http://www.w3.org/2000/svg">
<path d="M20.0566 20H39.9449V39.8882H20.0566V20Z" fill="#CFD8DC"/>
<path d="M6.38304 23.729H59.8327L53.6176 36.1591H0.167969L6.38304 23.729Z" fill="#CFD8DC"/>
<path d="M53.6174 26.2145H37.4582V22.4855H22.542V26.2145H10.1119L6.38281 33.6726H22.542V37.4017H37.4582V33.6726H49.8883L53.6174 26.2145Z" fill="#FFD54F"/>
<path d="M30.0001 37.4017V22.4855H22.542V26.2145H10.1119L6.38281 33.6726H22.542V37.4017H30.0001Z" fill="#FFC107"/>
<path d="M20.0566 20L22.5427 22.486V26.2151L20.0566 23.729V20Z" fill="#90A4AE"/>
<path d="M20.0566 20H30.0008V22.4855H22.5427L20.0566 20Z" fill="#B0BEC5"/>
<path d="M0.167969 36.1591L6.38304 33.6731L10.1121 26.215L6.38304 23.729L0.167969 36.1591Z" fill="#90A4AE"/>
<path d="M6.38281 23.729L10.1119 26.2145H22.542L20.056 23.729H6.38281Z" fill="#B0BEC5"/>
<path d="M30.0008 37.4022V39.8878H20.0566L22.5427 37.4022H30.0008Z" fill="#90A4AE"/>
<path d="M6.38304 33.6731L0.167969 36.1591H20.0562V39.8882L22.5422 37.4021V33.6731H6.38304Z" fill="#607D8B"/>
<path d="M39.945 20L37.459 22.486V26.2151L39.945 23.729V20Z" fill="#ECEFF1"/>
<path d="M53.6177 26.215L59.8328 23.729L53.6177 36.1591L49.8887 33.6731L53.6177 26.215Z" fill="#CFD8DC"/>
<path d="M37.459 33.6731V37.4021L39.945 39.8882V36.1591L37.459 33.6731Z" fill="#90A4AE"/>
<path d="M37.459 33.6731L39.945 36.1586H53.6182L49.8891 33.6731H37.459Z" fill="#90A4AE"/>
<path d="M39.9441 39.8878L37.4581 37.4022H30V39.8878H39.9441Z" fill="#B0BEC5"/>
<path d="M39.945 23.729L37.459 26.2145H53.6182L59.8332 23.729H39.945Z" fill="#ECEFF1"/>
</svg>
