<svg width="60" height="60" viewBox="0 0 60 60" fill="none" xmlns="http://www.w3.org/2000/svg">
<path d="M59.8169 29.1309C59.8267 29.1846 59.8364 29.2383 59.8462 29.2944C59.8364 29.2407 59.8267 29.1846 59.8169 29.1309ZM30 17.5C13.3472 17.5 0 23.7402 0 29.9976C0 36.2183 13.457 42.5 30 42.5C46.543 42.5 60 36.2036 60 29.9976C60 23.7964 46.543 17.5 30 17.5Z" fill="#303F9F"/>
<path d="M30 19.9998C46.77 19.9998 56.77 26.2693 57.4634 29.6506L57.4658 29.6677L57.478 29.7239C57.4927 29.8167 57.5 29.9094 57.5 29.9998C57.5 33.5251 47.0581 39.9998 30 39.9998C12.9419 39.9998 2.5 33.5251 2.5 29.9998C2.5 26.6038 12.207 19.9998 30 19.9998ZM30 18.7498C12.8027 18.7498 1.25 25.1707 1.25 29.9998C1.25 34.7288 13.0566 41.2498 30 41.2498C46.9434 41.2498 58.75 34.7288 58.75 29.9998C58.75 29.824 58.7329 29.6506 58.7036 29.4724L58.6108 29.4871L58.7012 29.4651C58.6987 29.4602 58.6987 29.4529 58.6963 29.448L58.606 29.4602L58.6938 29.4407C57.8125 24.863 46.2769 18.7498 30 18.7498Z" fill="white"/>
<path d="M46.0175 26.6553C45.9052 26.6553 45.8491 26.6699 45.7953 26.7725C45.622 27.1069 43.5029 30.2808 43.1098 30.8984C43.0439 30.9912 42.9609 30.979 42.9511 30.8716C42.912 30.5054 42.5947 30.0854 42.0966 29.8828C41.7182 29.729 41.3447 29.6997 40.9614 29.751C40.2656 29.8462 39.643 30.2124 39.0961 30.6274C38.2734 31.2524 37.5654 32.063 36.6474 32.6611C36.1493 32.9883 35.4633 33.2715 35.0068 32.8467C34.5917 32.4634 34.6381 31.6089 35.2729 30.9497C35.3388 30.8789 35.4194 30.9351 35.4072 30.9985C35.3461 31.2964 35.4218 31.5942 35.6464 31.8042C35.9247 32.0508 36.3202 32.0801 36.6596 31.9141C37.06 31.7163 37.2968 31.333 37.3627 30.8984C37.4701 30.2246 36.9501 29.6289 36.3007 29.5825C35.7734 29.5459 35.268 29.729 34.7748 30.1367C34.5283 30.3418 34.3867 30.4932 34.1743 30.7959C34.1205 30.8691 34.04 30.8765 34.0424 30.7666C34.0693 29.9048 33.7104 29.4189 32.9975 29.4019C32.4433 29.3896 31.85 29.6924 31.3886 30.0586C30.8832 30.4639 30.4413 31.001 29.9677 31.5063C29.9091 31.5698 29.8578 31.5674 29.8408 31.4478C29.8261 30.874 29.6821 30.3223 29.4184 29.9268C29.3256 29.79 29.1279 29.7217 28.9618 29.8145C28.8862 29.856 28.6201 29.978 28.4247 30.1343C28.3295 30.2148 28.2929 30.3296 28.3344 30.4761C28.5883 31.3306 28.5346 32.3022 28.1879 33.1201C27.8681 33.8721 27.2504 34.5508 26.5229 34.7803C26.0444 34.9316 25.5463 34.8584 25.2387 34.4336C24.8163 33.8477 24.9848 32.8296 25.6171 31.9824C26.1738 31.2378 26.977 30.7642 27.7826 30.459C27.8779 30.4224 27.895 30.3613 27.8705 30.2808C27.8266 30.1489 27.7558 29.9707 27.7289 29.8877C27.6533 29.6924 27.4482 29.6606 27.1967 29.6875C26.6108 29.7559 26.0859 29.9561 25.5659 30.2344C24.2035 30.9619 23.5224 32.373 23.2221 33.1299C23.0805 33.4937 22.956 33.7183 22.7973 33.9185C22.5825 34.1895 22.3139 34.4336 21.8183 34.8682C21.7768 34.9072 21.7426 34.9878 21.7792 35.0659C21.8305 35.1709 22.0868 35.5322 22.1576 35.564C22.2382 35.603 22.331 35.5493 22.3676 35.5225C22.7143 35.2881 23.1269 34.917 23.3271 34.6655C23.3979 34.5801 23.4711 34.6167 23.5077 34.7485C23.6957 35.4199 24.1889 35.9692 24.8725 36.1963C26.1201 36.6187 27.4164 36.0083 28.393 34.9463C29.0156 34.2749 29.2377 33.8379 29.477 33.5449C29.8798 33.0444 30.6757 31.9263 31.6254 31.2085C31.9721 30.9424 32.3847 30.7422 32.5898 30.874C32.7558 30.9814 32.8095 31.2329 32.5434 31.7163C31.5766 33.4839 30.1533 35.5566 29.892 36.0596C29.8456 36.1475 29.8847 36.2158 29.9775 36.2158C30.4853 36.2134 30.9858 36.2158 31.4448 36.2158C31.5204 36.2109 31.5546 36.1768 31.5937 36.1206C32.3334 34.9609 33.0341 33.855 33.7812 32.7124C33.8227 32.6465 33.8618 32.6978 33.8642 32.7271C33.8788 32.9932 33.9448 33.3569 34.101 33.5938C34.3842 34.0332 34.7846 34.2236 35.2289 34.2261C35.5829 34.231 35.7612 34.1772 36.142 34.0356C36.4521 33.9185 36.7035 33.7695 36.894 33.6304C37.0038 33.5547 37.0234 33.6841 37.0209 33.7036C36.85 34.624 37.0624 35.7178 37.978 36.1694C39.0742 36.709 40.2802 35.9497 40.9736 35.2661C41.0395 35.1978 41.1127 35.2051 41.1201 35.3467C41.1347 35.6079 41.2543 35.9204 41.4716 36.1377C42.0502 36.7212 43.2245 36.4893 44.3989 35.5811C45.1533 34.9976 45.9443 34.1748 46.6572 33.3008C46.6865 33.2666 46.7036 33.2129 46.6498 33.1567C46.5424 33.0444 46.3837 32.9126 46.2763 32.8149C46.2275 32.7734 46.1567 32.7832 46.1152 32.8174C45.3827 33.5107 44.7236 34.3042 43.7714 34.9609C43.4516 35.1855 42.9389 35.3662 42.7094 35.0562C42.6191 34.9341 42.6313 34.7656 42.7192 34.5483C42.9975 33.8574 47.3896 27.1655 47.6191 26.7725C47.6581 26.7017 47.6191 26.6528 47.5312 26.6528C47.0771 26.6528 46.4863 26.6528 46.0151 26.6528L46.0175 26.6553ZM39.0522 34.8755C38.8251 34.7583 38.7275 34.4409 38.7324 34.187C38.7446 33.4668 39.0644 32.7271 39.6552 31.9995C40.3754 31.1133 41.1713 30.6519 41.6962 30.9058C42.2358 31.1621 42.0624 31.7896 41.8207 32.2803C41.8036 32.3193 41.8036 32.3511 41.811 32.3828C41.8207 32.4341 41.8867 32.4829 41.9526 32.5073C41.9745 32.5171 41.9892 32.5317 41.9623 32.5855C41.7768 32.9858 41.6035 33.2178 41.3691 33.5645C41.1542 33.8867 40.9125 34.1382 40.6171 34.3799C40.2753 34.6606 39.831 34.9634 39.4111 34.9634C39.2914 34.9634 39.1694 34.9365 39.0522 34.8755Z" fill="white"/>
<path d="M22.6666 22.5977C22.2467 22.5977 21.8268 22.6147 21.3995 22.6465C18.7018 22.876 16.131 24.397 16.1261 26.7017C16.1261 27.8735 16.9562 28.8208 18.2452 28.7793C19.7589 28.728 21.004 27.5146 21.6534 25.9839C21.9 25.4053 21.4435 25.1636 21.2262 25.498C20.838 26.1011 20.2887 26.5674 19.6979 26.8555C18.985 27.207 18.2208 27.1118 17.9913 26.5308C17.6666 25.7153 18.3429 24.4946 19.8834 23.9185C22.1075 23.0933 24.4367 23.6377 26.6779 24.0601C26.7096 24.0601 26.8292 24.126 26.7218 24.1821C26.3214 24.3994 25.9259 24.5776 25.3107 25.1074C24.8688 25.4858 24.2926 25.9863 23.8458 26.5356C23.4039 27.0752 23.089 27.5586 22.674 28.0908C22.6154 28.1689 22.5421 28.1641 22.5446 28.1641C21.5314 28.3374 20.5377 28.4497 19.6295 29.082C19.4415 29.2114 19.3585 29.4434 19.4733 29.6191C19.5758 29.7754 19.8102 29.79 19.9713 29.6729C20.5377 29.2505 21.1188 29.0527 21.7853 29.0356C21.8121 29.0356 21.8268 29.043 21.8366 29.0576C21.8439 29.0698 21.8366 29.0894 21.8268 29.1064C20.8258 30.4907 20.5768 30.8032 19.8273 31.6626C19.4415 32.1045 19.0656 32.4756 18.6408 32.8638C16.9366 34.4482 15.1032 34.4214 14.4464 33.4277C14.0533 32.832 14.1046 32.207 14.3634 31.687C14.6783 31.0498 15.3204 30.5859 15.8527 30.3125C16.0504 30.2124 16.109 29.9585 15.9088 29.729C15.7843 29.5776 15.4791 29.5508 15.2496 29.5923C14.5514 29.7217 13.7262 30.249 13.2404 30.8838C12.691 31.5991 12.4152 32.4634 12.5079 33.4351C12.674 35.188 14.1168 36.2012 15.755 36.189C17.0587 36.1792 18.2867 35.7861 19.7638 34.2847C21.1432 32.8857 22.3981 30.7959 23.5724 28.8599C23.609 28.7964 23.6334 28.7622 23.8141 28.7402C24.549 28.6499 25.6378 28.5449 26.3361 28.5034C26.4923 28.4961 26.5241 28.4985 26.5851 28.5742C26.7658 28.8037 27.0392 28.999 27.2589 29.1162C27.3639 29.1748 27.4152 29.2017 27.4982 29.2041C27.6032 29.2065 27.6837 29.1504 27.735 29.0918C27.8082 29.0112 27.8302 28.9062 27.7887 28.8379C27.7472 28.7671 27.2614 28.4961 27.2467 28.3887C27.2345 28.3179 27.3102 28.3032 27.3102 28.3032C27.6666 28.1909 28.0402 27.959 28.2648 27.5269C28.4845 27.102 28.5211 26.5332 28.1158 26.2183C27.7594 25.9424 27.2223 25.9863 26.795 26.3696C26.3751 26.7432 26.236 27.2876 26.2921 27.7637C26.3043 27.8467 26.2994 27.876 26.1847 27.8833C25.5402 27.9346 24.92 27.9517 24.2291 27.9883C24.1827 27.9932 24.1681 27.9614 24.195 27.9297C24.9884 26.5454 26.1774 25.5615 27.4908 24.5947C27.5763 24.5288 27.5494 24.4043 27.547 24.3018C29.92 24.8169 32.2101 25.7764 34.6735 25.7544C35.6915 25.7471 36.6632 25.5933 37.5934 25.0806C38.4137 24.6338 38.7457 24.2212 38.7701 23.7915C38.7897 23.4961 38.5846 23.3081 38.2916 23.3716C35.8038 23.9429 33.4332 23.9355 30.9576 23.6377C28.1525 23.2983 25.4596 22.5977 22.6666 22.5977C22.6666 22.5977 22.6666 22.5977 22.6593 22.5977H22.6666ZM26.9489 27.5806C26.9122 27.3169 27.0001 26.9653 27.2784 26.7163C27.42 26.5918 27.6105 26.5625 27.7277 26.6626C27.8595 26.7749 27.796 27.0532 27.6642 27.2485C27.5201 27.4609 27.2736 27.644 27.0514 27.6904C27.0441 27.6904 27.0392 27.6929 27.0319 27.6929C26.9977 27.6904 26.9659 27.666 26.9489 27.5806Z" fill="white"/>
</svg>
