<svg width="60" height="60" viewBox="0 0 60 60" fill="none" xmlns="http://www.w3.org/2000/svg">
<path d="M30.0003 10C25.0199 10.0024 20.1543 10.1807 15.2203 10.8301C12.5983 11.1743 9.78097 11.7138 7.82788 13.6327C5.68681 15.7421 5.25957 18.8474 5.08868 21.6965C4.88849 24.9973 5.06182 28.2882 5.2669 31.5816C5.47685 34.8238 5.8455 38.1 6.6487 41.2567C7.02223 42.7191 7.52515 44.1888 8.38939 45.4485C9.21702 46.657 10.4108 47.5139 11.7487 48.1169C14.588 49.3962 17.8668 49.506 20.9331 49.694C23.9408 49.8723 26.9681 49.9846 30.0003 49.9992C33.03 49.9846 36.0598 49.8723 39.07 49.6916C42.1363 49.5036 45.4126 49.3937 48.2543 48.1145C49.5922 47.5163 50.7836 46.657 51.6136 45.4485C52.473 44.1863 52.9784 42.7167 53.3518 41.2542C54.1551 38.1 54.5237 34.8238 54.7313 31.5816C54.9363 28.2882 55.1121 24.9948 54.9119 21.6965C54.741 18.8474 54.3113 15.7421 52.1727 13.6352C50.2196 11.7138 47.4047 11.1743 44.7803 10.8301C39.8462 10.1807 34.9807 10.0024 30.0003 10Z" fill="#222222"/>
<path d="M49.5419 16.3061C48.5019 15.2807 46.6904 14.8633 44.293 14.5483C40.1256 13.999 35.7189 13.7524 30.0013 13.75C24.2837 13.7524 19.8746 13.999 15.712 14.5483C13.776 14.8022 11.6154 15.1709 10.4582 16.3086C9.25709 17.4902 8.96658 19.7069 8.8323 21.9236C8.64431 25.0144 8.81033 28.1442 9.01052 31.3473C9.24489 34.9776 9.64771 37.834 10.2849 40.3315C10.6291 41.6889 11.01 42.6435 11.4836 43.3343C11.8474 43.8641 12.4529 44.3231 13.2878 44.6991C15.2995 45.6073 17.9483 45.7611 20.5093 45.9124L21.1612 45.9515C24.2934 46.137 27.1937 46.2372 30.0184 46.2493C32.782 46.2347 35.7629 46.1346 38.8439 45.949L39.5128 45.9075C42.1837 45.7489 44.708 45.5999 46.7149 44.6966C47.5473 44.3231 48.1528 43.8641 48.5214 43.327C48.9902 42.641 49.371 41.6864 49.7177 40.329C50.3549 37.8291 50.7577 34.9727 50.9896 31.3448C51.1898 28.1418 51.3559 25.0046 51.1703 21.9212C51.036 19.7069 50.748 17.4926 49.5419 16.3061Z" fill="white"/>
<path d="M39.5127 45.9079C40.477 45.8518 41.4048 45.7834 42.3105 45.6931C42.2519 45.5612 42.2177 45.4197 42.2348 45.2414C43.1479 38.3787 43.6508 31.4966 44.0829 24.59C44.2123 21.6921 44.3783 18.7869 44.4198 15.889C44.4467 15.5765 44.3344 14.9759 44.4491 14.5707C44.3954 14.5633 44.3466 14.556 44.2929 14.5487C42.9941 14.3778 41.6636 14.2386 40.2866 14.1239C39.2784 17.7469 38.1138 22.5344 37.0787 26.1671C36.2462 29.0772 35.2941 33.2715 31.6881 33.6425C31.151 33.6963 30.5774 33.7427 29.9987 33.75C29.4226 33.7427 28.8513 33.6963 28.3118 33.6425C24.7058 33.269 23.7537 29.0772 22.9213 26.1671C21.8861 22.5368 20.7216 17.7469 19.7133 14.1263C18.3363 14.2386 17.0058 14.3778 15.7095 14.5487C15.6558 14.556 15.602 14.5633 15.5508 14.5707C15.6631 14.9759 15.5508 15.5765 15.5801 15.889C15.6192 18.7869 15.7876 21.6945 15.9145 24.59C16.3466 31.4966 16.8496 38.3787 17.7627 45.2414C17.7822 45.4124 17.7602 45.5588 17.7212 45.698C18.6415 45.7907 19.5766 45.8591 20.5092 45.9128L21.1586 45.9518C21.8177 45.9909 22.4598 46.0251 23.0994 46.0568C23.3461 45.2439 24.4544 41.721 24.4544 41.721C25.3162 38.9525 25.2918 38.1664 27.4988 37.7391C28.2337 37.5951 29.071 37.5048 29.9182 37.4999C30.7629 37.5048 31.6003 37.5951 32.3351 37.7391C34.5445 38.1664 34.6886 38.9525 35.5479 41.721C35.5479 41.721 36.6563 45.239 36.9029 46.0544C37.545 46.0227 38.1895 45.9885 38.8437 45.9494L39.5127 45.9079Z" fill="#222222"/>
</svg>
