<svg width="60" height="60" viewBox="0 0 60 60" fill="none" xmlns="http://www.w3.org/2000/svg">
<path fill-rule="evenodd" clip-rule="evenodd" d="M29.6667 3C14.94 3 3 14.94 3 29.6667C3 44.3933 14.94 56.3333 29.6667 56.3333C44.3933 56.3333 56.3333 44.3933 56.3333 29.6667C56.3333 14.94 44.3933 3 29.6667 3ZM7.8387 17.1324C12.2843 9.42274 20.4806 4.6285 29.3742 4.51385L25.923 27.3666L7.70065 42.0933C3.32289 34.3369 3.36969 24.842 7.8387 17.1324ZM29.7673 54.9529C20.8527 54.9996 12.5861 50.3224 8.02354 42.6572L29.6737 33.6958L51.4174 42.5192C46.9016 50.2054 38.6585 54.9295 29.7673 54.9529ZM33.3097 27.6685L30.02 4.51385C38.8784 4.64956 47.0186 9.42274 51.4619 17.0879C55.9309 24.7531 56.0221 34.1778 51.7403 41.9342L33.3097 27.6685Z" fill="#222222"/>
</svg>
