<svg width="60" height="60" viewBox="0 0 60 60" fill="none" xmlns="http://www.w3.org/2000/svg">
<path d="M34.9653 32.1071C34.9177 32.119 34.7272 32.119 34.6439 32.119H28.501V33.5476H34.751C34.7986 33.5476 35.1677 33.5476 35.2391 33.5357C36.5129 33.4166 37.0963 32.3571 37.0963 31.4285C37.0963 30.4762 36.4891 29.4523 35.3344 29.3452C35.1082 29.3214 34.9177 29.3214 34.8344 29.3214H30.751C30.5724 29.3214 30.3701 29.3095 30.2986 29.2857C29.9772 29.2023 29.8582 28.9166 29.8582 28.6785C29.8582 28.4642 29.9772 28.1785 30.3105 28.0833C30.4058 28.0595 30.5129 28.0476 30.7391 28.0476H36.632V26.6428H30.6439C30.3939 26.6428 30.2034 26.6547 30.0486 26.6785C29.0248 26.8214 28.3105 27.6428 28.3105 28.6904C28.3105 29.5476 28.8463 30.5476 30.0248 30.7143C30.2391 30.7381 30.5367 30.7381 30.6677 30.7381H34.6439C34.7153 30.7381 34.8939 30.7381 34.9296 30.75C35.382 30.8095 35.5367 31.1428 35.5367 31.4404C35.5367 31.7262 35.3582 32.0357 34.9653 32.1071Z" fill="#222222"/>
<path d="M23.3208 32.1071C23.2732 32.119 23.0827 32.119 23.0113 32.119H16.8565V33.5476H23.1065C23.1541 33.5476 23.5232 33.5476 23.5946 33.5357C24.8684 33.4166 25.4517 32.3571 25.4517 31.4285C25.4517 30.4762 24.8446 29.4523 23.6898 29.3452C23.4636 29.3214 23.2732 29.3214 23.1898 29.3214H19.1065C18.9279 29.3214 18.7255 29.3095 18.6541 29.2857C18.3327 29.2023 18.2136 28.9166 18.2136 28.6785C18.2136 28.4642 18.3327 28.1785 18.666 28.0833C18.7613 28.0595 18.8684 28.0476 19.0946 28.0476H24.9874V26.6428H18.9993C18.7493 26.6428 18.5589 26.6547 18.4041 26.6785C17.3803 26.8214 16.666 27.6428 16.666 28.6904C16.666 29.5476 17.2017 30.5476 18.3803 30.7143C18.5946 30.7381 18.8922 30.7381 19.0232 30.7381H22.9993C23.0708 30.7381 23.2494 30.7381 23.2851 30.75C23.7374 30.8095 23.8922 31.1428 23.8922 31.4404C23.8922 31.7262 23.7255 32.0357 23.3208 32.1071Z" fill="#222222"/>
<path d="M13.655 26.5952H12.1074V33.5833H13.655V26.5952Z" fill="#222222"/>
<path d="M8.69048 33.5833V26.5952H7.14286V31.8095L1.9881 26.5952H0V33.5833H1.54762V28.3452L6.7381 33.5833H8.69048Z" fill="#222222"/>
<path d="M58.4651 26.5952V31.8095L53.3104 26.5952H51.3223V33.5833H52.8699V28.3452L58.0485 33.5833H60.0008V26.5952H58.4651Z" fill="#222222"/>
<path d="M43.2614 26.5952L38.9043 33.5833H40.7853L41.5591 32.3333H46.6424L47.4162 33.5833H49.2853L44.9281 26.5952H43.2614ZM45.8448 31.0119H42.3567L44.1067 28.2024L45.8448 31.0119Z" fill="#222222"/>
<path d="M8.60696 22.631C11.726 13.5238 20.3212 7.40476 30.0117 7.40476C39.7022 7.40476 48.3093 13.5238 51.4165 22.631L51.4403 22.7024H58.2617V21.881L55.4284 21.5476C53.6784 21.3452 53.3093 20.5714 52.8331 19.5952L52.7141 19.3571C48.6189 10.6429 39.7022 5 30.0117 5C20.3093 5 11.4046 10.6429 7.30934 19.381L7.19029 19.619C6.7141 20.5952 6.34505 21.369 4.59505 21.5714L1.76172 21.9048V22.7262H8.57124L8.60696 22.631Z" fill="#222222"/>
<path d="M51.4401 37.4881L51.4163 37.5595C48.2972 46.6667 39.702 52.7738 30.0115 52.7738C20.3211 52.7738 11.7139 46.6548 8.60677 37.5476L8.58296 37.4762H1.77344V38.2976L4.60677 38.631C6.35677 38.8333 6.72582 39.6071 7.20201 40.5833L7.32106 40.8214C11.4163 49.5595 20.333 55.2024 30.0234 55.2024C39.7139 55.2024 48.6306 49.5595 52.7258 40.8333L52.8449 40.5952C53.3211 39.6191 53.6901 38.8452 55.4401 38.6429L58.2734 38.3095V37.4881H51.4401Z" fill="#222222"/>
</svg>
