<svg width="60" height="60" viewBox="0 0 60 60" fill="none" xmlns="http://www.w3.org/2000/svg">
<path fill-rule="evenodd" clip-rule="evenodd" d="M22.6561 30.2477C22.6561 29.9512 22.6666 29.3689 22.6666 29.3689C13.9183 27.9959 7.59611 24.2284 7.42136 19.7989C5.2675 22.4854 4.04543 25.5617 4.04543 28.8397C4.04543 38.4852 14.6335 46.3885 28.0915 47.0929C24.9738 45.1277 22.6561 38.3274 22.6561 30.2477ZM0 29.5434C0 18.7507 13.4309 10 30 10C46.5686 10 60 18.7507 60 29.5434C60 40.3362 46.5684 49.0871 30 49.0871C13.4309 49.0871 0 40.336 0 29.5434ZM36.929 24.4372C43.1534 23.4635 47.5104 21.229 47.5104 18.6289C47.5104 15.1391 39.6698 12.3134 30 12.3134C20.3294 12.3134 12.4896 15.1394 12.4896 18.6289C12.4896 21.229 16.8458 23.4635 23.071 24.4372C24.0808 17.6727 26.8021 12.8205 30 12.8205C33.1986 12.8205 35.9192 17.6724 36.929 24.4372ZM31.9086 47.0927C45.366 46.3885 55.9555 38.485 55.9555 28.8394C55.9555 25.5617 54.732 22.4854 52.5782 19.7987C52.4032 24.2281 46.0826 27.9956 37.3334 29.3687C37.3334 29.3687 37.3443 29.9509 37.3443 30.2474C37.3443 38.3271 35.025 45.1275 31.9086 47.0927H31.9086ZM34.1579 24.7679C33.4936 20.4292 31.8826 17.3664 30 17.3664C28.1175 17.3664 26.5067 20.4292 25.8416 24.7679C28.6514 24.9987 31.4202 25.0024 34.1579 24.7679ZM25.5172 29.7221C25.6271 36.005 27.591 41.0164 30 41.0164C32.408 41.0164 34.3724 36.0052 34.4836 29.7221C31.4059 29.9895 28.4012 29.9893 25.5172 29.7221Z" fill="#E40521"/>
</svg>
